#N canvas 521 25 547 676 12;
#X obj 69 54 bng 30 250 50 0 empty empty empty 17 7 0 10 #fcfcfc #000000 #000000;
#X obj 110 185 + 1;
#X obj 69 185 float;
#X msg 119 114 stop;
#X obj 272 275 % 1000;
#X floatatom 272 316 5 0 0 0 - - - 0;
#X obj 69 147 metro 1;
#X obj 119 54 bng 30 250 50 0 empty empty empty 17 7 0 10 #fcfcfc #000000 #000000;
#X obj 169 54 bng 30 250 50 0 empty empty empty 17 7 0 10 #fcfcfc #000000 #000000;
#X msg 169 185 0;
#X floatatom 210 316 5 0 0 0 - - - 0;
#X floatatom 147 316 5 0 0 0 - - - 0;
#X floatatom 69 317 5 0 0 0 - - - 0;
#X obj 210 296 % 60;
#X obj 147 296 % 60;
#X obj 69 297 % 24;
#X obj 147 275 / 60000;
#X obj 69 275 / 3.6e+06;
#X obj 210 275 / 1000;
#X text 118 33 STOP;
#X text 166 33 RESET;
#X text 66 33 START;
#X obj 69 434 print;
#X obj 169 113 loadbang;
#X obj 69 352 pack float float float float;
#X obj 169 148 t b b;
#X msg 69 373 time >> \$1:\$2:\$3.\$4;
#X obj 148 458 outlet;
#X obj 270 40 inlet;
#X obj 13 6 loadbang;
#X connect 0 0 6 0;
#X connect 1 0 2 1;
#X connect 2 0 1 0;
#X connect 2 0 4 0;
#X connect 2 0 17 0;
#X connect 2 0 16 0;
#X connect 2 0 18 0;
#X connect 3 0 6 0;
#X connect 4 0 5 0;
#X connect 5 0 24 3;
#X connect 6 0 2 0;
#X connect 7 0 3 0;
#X connect 8 0 25 0;
#X connect 9 0 2 0;
#X connect 10 0 24 2;
#X connect 11 0 24 1;
#X connect 12 0 24 0;
#X connect 13 0 10 0;
#X connect 14 0 11 0;
#X connect 15 0 12 0;
#X connect 16 0 14 0;
#X connect 16 0 27 0;
#X connect 17 0 15 0;
#X connect 18 0 13 0;
#X connect 23 0 8 0;
#X connect 24 0 26 0;
#X connect 25 0 9 0;
#X connect 25 1 9 0;
#X connect 28 0 0 0;
#X connect 29 0 0 0;
