#N canvas 557 25 883 832 12;
#N canvas 170 146 345 253 dsp 0;
#X obj 29 26 loadbang;
#X obj 29 56 delay 5000;
#X obj 172 28 r dsp_on;
#X obj 174 110 s dsp_on;
#X msg 175 84 1;
#X obj 247 57 tgl 19 0 empty empty empty 0 -10 0 12 #fcfcfc #000000 #000000 0 1;
#X msg 29 95 \; pd dsp \$1;
#X connect 0 0 1 0;
#X connect 1 0 6 0;
#X connect 1 0 4 0;
#X connect 2 0 6 0;
#X connect 2 0 5 0;
#X connect 4 0 3 0;
#X restore 633 6 pd dsp;
#X obj 611 150 adc~;
#X text 77 745 VOLUME;
#X text 163 746 PITCH;
#X text 229 748 DISTORTION;
#X obj 556 640 clip~;
#X text 457 656 looper;
#X text 459 693 buffer;
#X text 68 642 https://www.youtube.com/watch?v=ooU5sCtS0fA;
#X text 69 676 https://www.youtube.com/watch?v=CLddxGIlVPU;
#X text 74 712 https://www.youtube.com/watch?v=eDenGSHyW5Q;
#X obj 78 263 vu 30 120 vu_1 empty -1 -10 0 12 #131255 #000000 1 0;
#X obj 611 199 env~;
#X obj 647 199 - 95;
#X obj 41 263 vsl 30 120 0 1 0 0 input1 empty CHANNEL\ 1 0 -9 0 12 #fcfcfc #000000 #000000 0 0;
#X obj 611 175 *~;
#X obj 684 175 r input1;
#X obj 684 199 s vu_1;
#N canvas 95 319 450 450 panner 0;
#X obj 70 40 inlet~ signal;
#X obj 227 43 inlet control;
#X obj 227 81 / 4;
#X floatatom 227 106 5 0 0 0 - - - 0;
#X obj 227 129 + 0.75;
#X msg 227 154 \$1 10;
#X obj 227 179 line~;
#X obj 227 206 cos~;
#X msg 88 164 \$1 10;
#X obj 88 189 line~;
#X obj 88 216 cos~;
#X obj 70 260 *~;
#X obj 70 340 outlet~ left;
#X obj 210 340 outlet~ tight;
#X obj 209 261 *~;
#X connect 0 0 11 0;
#X connect 0 0 14 0;
#X connect 1 0 2 0;
#X connect 2 0 3 0;
#X connect 3 0 4 0;
#X connect 3 0 8 0;
#X connect 4 0 5 0;
#X connect 5 0 6 0;
#X connect 6 0 7 0;
#X connect 7 0 14 1;
#X connect 8 0 9 0;
#X connect 9 0 10 0;
#X connect 10 0 11 1;
#X connect 11 0 12 0;
#X connect 14 0 13 0;
#X restore 758 249 pd panner;
#X obj 43 223 hsl 80 19 0 1 0 0 pan_ch_1 empty PAN -2 -10 0 12 #fcfcfc #000000 #000000 0 0;
#X obj 758 204 r pan_ch_1;
#X obj 641 174 pow 2;
#X floatatom 758 226 5 0 0 0 - - - 0;
#X obj 758 273 throw~ masterL;
#X obj 758 296 throw~ masterR;
#X obj 244 265 vu 30 120 vu_master empty -1 -10 0 12 #131255 #000000 1 0;
#X obj 207 265 vsl 30 120 0 1 0 0 masterVol empty MASTER_VOLUME 0 -9 0 12 #fcfcfc #000000 #000000 0 0;
#X obj 43 180 hsl 80 19 0 1 0 0 effect_send_1 empty REVERB_SEND -2 -10 0 12 #fcfcfc #000000 #000000 0 0;
#X floatatom 671 236 5 0 0 0 - effect_send_1 - 0;
#X obj 641 236 *~;
#X obj 641 262 throw~ fx1;
#N canvas 133 466 450 300 REVERB 0;
#X obj 45 36 catch~ fx1;
#X obj 45 61 rev2~ 100 85 3000 20;
#X obj 45 88 *~;
#X obj 90 88 *~;
#X floatatom 128 88 5 0 0 0 - effect_return_1 - 0;
#X obj 45 119 throw~ masterL;
#X obj 45 142 throw~ masterR;
#X connect 0 0 1 0;
#X connect 1 0 2 0;
#X connect 1 1 3 0;
#X connect 2 0 5 0;
#X connect 3 0 6 0;
#X connect 4 0 3 1;
#X connect 4 0 2 1;
#X restore 634 56 pd REVERB;
#N canvas 68 189 482 625 RING_MOD 0;
#X obj 25 188 *~;
#X obj 70 188 *~;
#X floatatom 108 188 5 0 0 0 - effect_return_2 - 0;
#X obj 25 219 throw~ masterL;
#X obj 25 242 throw~ masterR;
#X obj 25 66 catch~ fx2;
#X obj 25 158 *~;
#X obj 259 122 osc~;
#X obj 262 83 hsl 100 30 0 10000 0 0 empty ring_pitch PITCH -2 -10 0 12 #fcfcfc #000000 #000000 0 1;
#X connect 0 0 3 0;
#X connect 1 0 4 0;
#X connect 2 0 1 1;
#X connect 2 0 0 1;
#X connect 5 0 6 0;
#X connect 6 0 0 0;
#X connect 6 0 1 0;
#X connect 7 0 6 1;
#X connect 8 0 7 0;
#X restore 634 81 pd RING_MOD;
#N canvas 983 300 450 300 MAIN_OUT 0;
#X obj 127 216 dac~;
#X obj 42 31 catch~ masterL;
#X obj 152 31 catch~ masterR;
#X obj 42 107 *~;
#X obj 152 107 *~;
#X obj 63 54 r masterVol;
#X obj 63 77 pow 2;
#X obj 42 137 +~;
#X obj 42 162 env~;
#X obj 78 162 - 95;
#X obj 41 185 s vu_master;
#X connect 1 0 3 0;
#X connect 2 0 4 0;
#X connect 3 0 7 0;
#X connect 3 0 0 0;
#X connect 4 0 7 1;
#X connect 4 0 0 1;
#X connect 5 0 6 0;
#X connect 6 0 3 1;
#X connect 6 0 4 1;
#X connect 7 0 8 0;
#X connect 8 0 9 0;
#X connect 9 0 10 0;
#X restore 634 31 pd MAIN_OUT;
#X obj 35 36 tgl 30 0 dsp_on dsp_on DSP 0 -10 0 12 #fcfcfc #000000 #000000 0 1;
#X floatatom 651 296 5 0 0 0 - effect_send_2 - 0;
#X obj 621 296 *~;
#X obj 621 322 throw~ fx2;
#X obj 43 138 hsl 80 19 0 1 0 0 effect_send_2 empty RING_SEND -2 -10 0 12 #fcfcfc #000000 #000000 0 0;
#X obj 208 179 hsl 80 19 0 1 0 0 effect_return_1 empty REVERB_RETURN -2 -10 0 12 #fcfcfc #000000 #000000 0 0;
#X obj 207 138 hsl 80 19 0 1 0 0 effect_return_2 empty RING_RETURN -2 -10 0 12 #fcfcfc #000000 #000000 0 0;
#X obj 304 138 hsl 80 19 0 10000 0 0 ring_pitch empty PITCH -2 -10 0 12 #fcfcfc #000000 #000000 0 0;
#X obj 557 683 rev3~, f 17;
#X floatatom 338 182 5 0 0 0 - - - 0;
#X obj 133 501 import mrpeach;
#X obj 484 440 unpackOSC;
#X obj 484 412 udpreceive 9001;
#X obj 484 464 routeOSC /test;
#X obj 484 488 routeOSC /voice /mute;
#X obj 484 512 unpack f f f;
#X floatatom 484 536 5 0 0 0 - - - 0;
#X floatatom 526 536 5 0 0 0 - - - 0;
#X floatatom 568 537 5 0 0 0 - - - 0;
#X text 559 754 mrpeach;
#X text 558 776 osc;
#X obj 304 546 import;
#X obj 64 548 fiddle~, f 18;
#X floatatom 53 589 5 0 0 0 - - - 0;
#X floatatom 107 591 5 0 0 0 - - - 0;
#X floatatom 169 589 5 0 0 0 - - - 0;
#X floatatom 231 590 5 0 0 0 - - - 0;
#X text 338 746 limitador / feedback;
#X connect 1 0 15 0;
#X connect 1 0 18 0;
#X connect 1 0 56 0;
#X connect 12 0 13 0;
#X connect 13 0 17 0;
#X connect 15 0 12 0;
#X connect 15 0 29 0;
#X connect 15 0 36 0;
#X connect 16 0 21 0;
#X connect 18 0 23 0;
#X connect 18 1 24 0;
#X connect 20 0 22 0;
#X connect 21 0 15 1;
#X connect 22 0 18 1;
#X connect 28 0 29 1;
#X connect 29 0 30 0;
#X connect 29 0 36 0;
#X connect 35 0 36 1;
#X connect 36 0 37 0;
#X connect 41 0 43 0;
#X connect 45 0 47 0;
#X connect 46 0 45 0;
#X connect 47 0 48 0;
#X connect 48 0 49 0;
#X connect 49 0 50 0;
#X connect 49 1 51 0;
#X connect 49 2 52 0;
#X connect 56 0 57 0;
#X connect 56 1 58 0;
#X connect 56 2 59 0;
#X connect 56 3 60 0;
