#N canvas 529 54 911 822 12;
#N canvas 170 146 345 253 dsp 0;
#X obj 29 26 loadbang;
#X obj 29 56 delay 5000;
#X obj 172 28 r dsp_on;
#X obj 174 110 s dsp_on;
#X msg 175 84 1;
#X obj 247 57 tgl 19 0 empty empty empty 0 -10 0 12 -262144 -1 -1 1
1;
#X msg 30 125 \; pd dsp \$1;
#X connect 0 0 1 0;
#X connect 1 0 4 0;
#X connect 2 0 5 0;
#X connect 2 0 6 0;
#X connect 4 0 3 0;
#X restore 765 697 pd dsp;
#X obj 26 476 adc~;
#X text 662 440 VOLUME;
#X text 662 462 PITCH;
#X text 664 483 DISTORTION;
#X obj 58 333 vu 30 120 vu_1 empty -1 -10 0 12 -16662 -1 1 0;
#X obj 26 525 env~;
#X obj 62 525 - 95;
#X obj 21 333 vsl 30 120 0 10 0 0 input1 channel_1_in CHANNEL_1 0 -9
0 12 -262144 -1 -1 6900 0;
#X obj 26 501 *~;
#X obj 99 501 r input1;
#X obj 99 525 s vu_1;
#X obj 56 500 pow 2;
#X obj 184 335 vu 30 120 vu_master empty -1 -10 0 12 -16662 -1 1 0
;
#X obj 147 335 vsl 30 120 0 1 0 0 masterVol masterVol_in MASTER_VOLUME
0 -9 0 12 -262144 -1 -1 7300 0;
#X obj 23 174 hsl 80 19 0 1 0 0 effect_send_1 reverb_send_in REVERB_SEND
-2 -10 0 12 -262144 -1 -1 0 0;
#X floatatom 76 562 5 0 0 0 - effect_send_1 -;
#X obj 46 562 *~;
#X obj 46 588 throw~ fx1;
#N canvas 133 466 450 300 REVERB 0;
#X obj 45 36 catch~ fx1;
#X obj 45 61 rev2~ 100 85 3000 20;
#X obj 45 88 *~;
#X obj 90 88 *~;
#X floatatom 128 88 5 0 0 0 - effect_return_1 -;
#X obj 45 119 throw~ masterL;
#X obj 45 142 throw~ masterR;
#X connect 0 0 1 0;
#X connect 1 0 2 0;
#X connect 1 1 3 0;
#X connect 2 0 5 0;
#X connect 3 0 6 0;
#X connect 4 0 3 1;
#X connect 4 0 2 1;
#X restore 765 745 pd REVERB;
#N canvas 68 189 482 625 RING_MOD 0;
#X obj 25 188 *~;
#X obj 70 188 *~;
#X floatatom 108 188 5 0 0 0 - effect_return_2 -;
#X obj 25 219 throw~ masterL;
#X obj 25 242 throw~ masterR;
#X obj 25 66 catch~ fx2;
#X obj 25 158 *~;
#X obj 259 122 osc~;
#X obj 262 83 hsl 100 30 0 10000 0 0 empty ring_pitch PITCH -2 -10
0 12 -262144 -1 -1 834 1;
#X connect 0 0 3 0;
#X connect 1 0 4 0;
#X connect 2 0 1 1;
#X connect 2 0 0 1;
#X connect 5 0 6 0;
#X connect 6 0 0 0;
#X connect 6 0 1 0;
#X connect 7 0 6 1;
#X connect 8 0 7 0;
#X restore 765 770 pd RING_MOD;
#N canvas 51 454 505 370 MAIN_OUT 0;
#X obj 143 293 dac~;
#X obj 42 31 catch~ masterL;
#X obj 152 31 catch~ masterR;
#X obj 42 147 *~;
#X obj 152 147 *~;
#X obj 63 54 r masterVol;
#X obj 63 77 pow 2;
#X obj 42 177 +~;
#X obj 42 202 env~;
#X obj 78 202 - 95;
#X obj 41 225 s vu_master;
#X obj 177 61 catch~ masterL1;
#X obj 292 61 catch~ masterR2;
#X obj 183 228 clip~ -0.95 0.95;
#X obj 143 258 clip~ -0.95 0.95;
#X connect 1 0 3 0;
#X connect 2 0 4 0;
#X connect 3 0 7 0;
#X connect 3 0 14 0;
#X connect 4 0 7 1;
#X connect 4 0 13 0;
#X connect 5 0 6 0;
#X connect 6 0 3 1;
#X connect 6 0 4 1;
#X connect 7 0 8 0;
#X connect 8 0 9 0;
#X connect 9 0 10 0;
#X connect 11 0 3 0;
#X connect 12 0 4 0;
#X connect 13 0 0 1;
#X connect 14 0 0 0;
#X restore 765 795 pd MAIN_OUT;
#X obj 15 21 tgl 30 0 dsp_on dsp_on DSP 0 -10 0 12 -262144 -1 -1 1
1;
#X floatatom 56 622 5 0 0 0 - effect_send_2 -;
#X obj 26 622 *~;
#X obj 26 648 throw~ fx2;
#X obj 23 218 hsl 80 19 0 1 0 0 effect_send_2 ring_send_in RING_SEND
-2 -10 0 12 -262144 -1 -1 3800 0;
#X obj 148 173 hsl 80 19 0 1 0 0 effect_return_1 reverb_return_in REVERB_RETURN
-2 -10 0 12 -262144 -1 -1 0 0;
#X obj 147 218 hsl 80 19 0 1 0 0 effect_return_2 ring_return_in RING_RETURN
-2 -10 0 12 -262144 -1 -1 3600 0;
#X obj 269 218 hsl 80 19 0 10000 0 0 ring_pitch empty PITCH -2 -10
0 12 -262144 -1 -1 666 0;
#X floatatom 266 241 5 0 10000 0 - - -;
#X obj 97 49 unpackOSC;
#X floatatom 97 98 5 0 0 0 - - -;
#X floatatom 197 98 5 0 0 0 - - -;
#X obj 341 497 fiddle~, f 18;
#X floatatom 341 523 5 0 0 0 - - -;
#X text 659 503 limitador / feedback;
#X floatatom 378 70 5 0 0 0 - - -;
#X obj 97 73 routeOSC /ldr;
#X obj 197 73 routeOSC /tof;
#X obj 97 21 udpreceive 9000;
#X obj 337 21 vsl 30 100 300 4000 0 0 empty empty empty 0 -9 0 12 -262144
-1 -1 0 0;
#X obj 384 523 s dB;
#X floatatom 416 20 5 0 0 0 - - -;
#X obj 378 20 r dB;
#X text 696 321 ldr 300 - 4000;
#X text 696 338 ldr c/luz - s/luz;
#X obj 378 46 expr if ($f1 > 55 \, $f2 \, 0);
#X text 698 371 tof 45 - 1200;
#X obj 385 736 throw~ masterL;
#X obj 385 759 throw~ masterR;
#X obj 267 689 clip~ -0.5 0.5;
#X obj 390 631 hsl 50 19 0 1 0 0 empty empty empty -2 -10 0 12 -262144
-1 -1 4900 0;
#X floatatom 396 662 5 0 0 0 - - -;
#X obj 310 631 hsl 50 19 -1 0 0 0 empty empty empty -2 -10 0 12 -262144
-1 -1 0 0;
#X floatatom 316 662 5 0 0 0 - - -;
#X obj 181 501 clip~ -0.95 0.95;
#X obj 182 528 throw~ masterL1;
#X obj 182 551 throw~ masterR2;
#N canvas 78 349 450 446 PRESET 0;
#X obj 30 45 loadbang;
#X obj 30 94 s reverb_send_in;
#X text 30 22 REVERB;
#X msg 30 72 0.5;
#X msg 30 122 0.5;
#X obj 30 144 s reverb_return_in;
#X obj 230 45 loadbang;
#X msg 230 72 0.5;
#X msg 230 122 0.5;
#X text 230 22 RING;
#X obj 230 94 s ring_send_in;
#X obj 230 144 s ring_return_in;
#X obj 29 225 loadbang;
#X msg 29 252 0.5;
#X msg 29 302 0.5;
#X obj 29 274 s channel_1_in;
#X obj 29 324 s masterVol_in;
#X text 29 202 GAIN_FADER;
#X connect 0 0 3 0;
#X connect 0 0 4 0;
#X connect 3 0 1 0;
#X connect 4 0 5 0;
#X connect 6 0 7 0;
#X connect 6 0 8 0;
#X connect 7 0 10 0;
#X connect 8 0 11 0;
#X connect 12 0 13 0;
#X connect 12 0 14 0;
#X connect 13 0 15 0;
#X connect 14 0 16 0;
#X restore 765 721 pd PRESET;
#X floatatom 525 120 5 0 0 0 - - -;
#X floatatom 391 121 5 0 0 0 - - -;
#X obj 464 120 moses 0;
#X obj 378 148 expr if ($f1 == 0 \, $f2 * 0 \, $f2);
#X floatatom 378 177 5 0 0 0 - - -;
#X obj 377 94 scale 300 5000 5000 200, f 28;
#X obj 432 120 / 3;
#X connect 1 0 9 0;
#X connect 1 0 34 0;
#X connect 1 0 56 0;
#X connect 1 0 51 0;
#X connect 6 0 7 0;
#X connect 7 0 11 0;
#X connect 9 0 6 0;
#X connect 9 0 17 0;
#X connect 9 0 24 0;
#X connect 10 0 12 0;
#X connect 12 0 9 1;
#X connect 16 0 17 1;
#X connect 17 0 18 0;
#X connect 17 0 24 0;
#X connect 23 0 24 1;
#X connect 24 0 25 0;
#X connect 29 0 30 0;
#X connect 31 0 38 0;
#X connect 31 0 39 0;
#X connect 32 0 43 0;
#X connect 34 3 35 0;
#X connect 35 0 42 0;
#X connect 37 0 63 0;
#X connect 37 0 65 0;
#X connect 38 0 32 0;
#X connect 39 0 33 0;
#X connect 40 0 31 0;
#X connect 41 0 43 0;
#X connect 43 0 47 1;
#X connect 44 0 47 0;
#X connect 47 0 37 0;
#X connect 51 0 49 0;
#X connect 51 0 50 0;
#X connect 52 0 53 0;
#X connect 52 0 51 2;
#X connect 54 0 55 0;
#X connect 54 0 51 1;
#X connect 56 0 57 0;
#X connect 56 0 58 0;
#X connect 60 0 63 1;
#X connect 61 0 66 0;
#X connect 62 1 60 0;
#X connect 63 0 64 0;
#X connect 64 0 29 0;
#X connect 65 0 61 0;
#X connect 66 0 62 0;
