#N canvas 86 125 1029 694 10;
#X obj 38 524 tabwrite~ sampler;
#X obj 169 379 r Channel-Push;
#X obj 169 416 sel 1 0;
#X msg 161 467 stop;
#X obj 535 195 timer;
#X obj 535 225 t b f f;
#X obj 535 285 /;
#X obj 535 325 phasor~;
#X obj 535 355 *~ 1;
#X obj 535 395 tabread~ sampler;
#X msg 534 256 1000;
#X obj 700 107 table sampler 144000;
#X obj 125 376 tgl 15 0 empty empty empty 17 7 0 10 -262144 -1 -1 0
1;
#X obj 615 325 * 48;
#X obj 127 51 tgl 15 0 empty empty empty 17 7 0 10 -262144 -1 -1 0
1;
#X obj 126 230 metro 500;
#X obj 42 262 sel 0;
#X msg 41 314 0;
#X obj 42 289 delay 1000;
#X msg 220 121 100;
#X msg 220 151 200;
#X msg 220 181 300;
#X msg 220 211 400;
#X msg 220 241 500;
#X text 215 96 AQUI PODES MUDAR O TEMPO (MS);
#X msg 220 271 1000;
#X text 153 48 ON / OFF PROCESSO DE SAMPLE;
#X msg 530 117 0;
#X text 526 77 DEPOIS DO OFF \, CARREGAR NO ZERO PARA DESLIGAR PROCESSO
;
#X obj 127 21 inlet;
#X obj 37 423 catch~ sampler;
#X obj 524 39 sel 0;
#X obj 588 104 delay 1500;
#X obj 540 446 throw~ masterLSampler1;
#X obj 540 469 throw~ masterRSampler2;
#X connect 1 0 2 0;
#X connect 2 0 0 0;
#X connect 2 0 4 0;
#X connect 2 1 3 0;
#X connect 2 1 4 1;
#X connect 3 0 0 0;
#X connect 4 0 5 0;
#X connect 5 0 10 0;
#X connect 5 1 6 1;
#X connect 5 2 13 0;
#X connect 6 0 7 0;
#X connect 7 0 8 0;
#X connect 8 0 9 0;
#X connect 9 0 33 0;
#X connect 9 0 34 0;
#X connect 10 0 6 0;
#X connect 12 0 2 0;
#X connect 13 0 8 1;
#X connect 14 0 15 0;
#X connect 14 0 16 0;
#X connect 15 0 12 0;
#X connect 16 0 18 0;
#X connect 17 0 12 0;
#X connect 18 0 17 0;
#X connect 19 0 15 1;
#X connect 20 0 15 1;
#X connect 21 0 15 1;
#X connect 22 0 15 1;
#X connect 23 0 15 1;
#X connect 25 0 15 1;
#X connect 27 0 8 1;
#X connect 29 0 14 0;
#X connect 29 0 31 0;
#X connect 30 0 0 0;
#X connect 31 0 32 0;
#X connect 32 0 27 0;
