#N canvas 538 25 804 396 12;
#N canvas 170 146 345 253 dsp 0;
#X obj 29 26 loadbang;
#X obj 29 56 delay 5000;
#X obj 172 28 r dsp_on;
#X obj 174 110 s dsp_on;
#X msg 175 84 1;
#X obj 247 57 tgl 19 0 empty empty empty 0 -10 0 12 #fcfcfc #000000 #000000 0 1;
#X msg 30 125 \; pd dsp \$1;
#X connect 0 0 1 0;
#X connect 1 0 4 0;
#X connect 2 0 5 0;
#X connect 2 0 6 0;
#X connect 4 0 3 0;
#X restore 672 68 pd dsp;
#X obj 72 153 vu 30 120 vu_1 empty -1 -10 0 12 #101054 #000000 1 0;
#X obj 35 153 vsl 30 120 0 10 0 0 input1 channel_1_in MIC_GAIN 0 -11 0 12 #fcfcfc #000000 #000000 0 0;
#X obj 208 155 vu 30 120 vu_master empty -1 -10 0 12 #101054 #000000 1 0;
#X obj 171 155 vsl 30 120 0 1 0 0 masterVol masterVol_in MASTER_OUT 0 -11 0 12 #fcfcfc #000000 #000000 0 0;
#N canvas 68 189 482 625 RING_MOD 0;
#X obj 25 188 *~;
#X obj 70 188 *~;
#X floatatom 108 188 5 0 0 0 - effect_return_2 - 0;
#X obj 25 219 throw~ masterL;
#X obj 25 242 throw~ masterR;
#X obj 25 66 catch~ fx2;
#X obj 25 158 *~;
#X obj 259 122 osc~;
#X obj 262 83 hsl 100 30 0 10000 0 0 empty ring_pitch PITCH -2 -10 0 12 #fcfcfc #000000 #000000 0 1;
#X connect 0 0 3 0;
#X connect 1 0 4 0;
#X connect 2 0 1 1;
#X connect 2 0 0 1;
#X connect 5 0 6 0;
#X connect 6 0 0 0;
#X connect 6 0 1 0;
#X connect 7 0 6 1;
#X connect 8 0 7 0;
#X restore 672 156 pd RING_MOD;
#N canvas 51 253 767 477 MAIN_OUT 0;
#X obj 143 293 dac~;
#X obj 42 31 catch~ masterL;
#X obj 152 31 catch~ masterR;
#X obj 42 147 *~;
#X obj 152 147 *~;
#X obj 63 54 r masterVol;
#X obj 63 77 pow 2;
#X obj 42 177 +~;
#X obj 42 202 env~;
#X obj 78 202 - 95;
#X obj 41 225 s vu_master;
#X obj 177 61 catch~ masterL1;
#X obj 292 61 catch~ masterR2;
#X obj 183 228 clip~ -0.95 0.95;
#X obj 143 258 clip~ -0.95 0.95;
#X obj 396 123 catch~ masterLSampler1;
#X obj 459 151 catch~ masterRSampler2;
#X obj 459 183 *~ 0.2;
#X obj 397 153 *~ 0.2;
#X connect 1 0 3 0;
#X connect 2 0 4 0;
#X connect 3 0 7 0;
#X connect 3 0 14 0;
#X connect 4 0 7 1;
#X connect 4 0 13 0;
#X connect 5 0 6 0;
#X connect 6 0 3 1;
#X connect 6 0 4 1;
#X connect 7 0 8 0;
#X connect 8 0 9 0;
#X connect 9 0 10 0;
#X connect 11 0 3 0;
#X connect 12 0 4 0;
#X connect 13 0 0 1;
#X connect 14 0 0 0;
#X connect 15 0 18 0;
#X connect 16 0 17 0;
#X connect 17 0 14 0;
#X connect 17 0 4 0;
#X connect 18 0 13 0;
#X connect 18 0 3 0;
#X restore 672 178 pd MAIN_OUT;
#X obj 35 41 tgl 30 0 dsp_on dsp_on DSP 0 -10 0 12 #fcfcfc #000000 #000000 0 1;
#X obj 356 126 hsl 80 19 0 1 0 0 effect_send_2 ring_send_in RING_SEND -2 -10 0 12 #fcfcfc #000000 #000000 0 0;
#X obj 356 166 hsl 80 19 0 1 0 0 effect_return_2 ring_return_in RING_RETURN -2 -10 0 12 #fcfcfc #000000 #000000 0 0;
#X obj 356 207 hsl 80 19 0 10000 0 0 ring_pitch ring_pitch_receive PITCH -2 -10 0 12 #fcfcfc #000000 #000000 0 0;
#X floatatom 353 230 5 0 10000 0 - - - 0;
#N canvas 78 349 720 472 PRESET 0;
#X obj 30 45 loadbang;
#X text 30 22 RING;
#X obj 30 94 s ring_send_in;
#X obj 30 144 s ring_return_in;
#X obj 288 65 loadbang;
#X obj 288 114 s channel_1_in;
#X obj 288 164 s masterVol_in;
#X text 288 42 GAIN_FADER;
#X msg 30 122 0;
#X msg 288 142 0.393386;
#X msg 30 72 1;
#X msg 288 92 4.05308;
#X obj 440 28 r slide_um;
#X msg 429 98 set \$1;
#X floatatom 430 76 5 0 0 0 - - - 0;
#X obj 440 54 t b f;
#X obj 470 77 * 10;
#X msg 550 190 set \$1;
#X floatatom 551 169 5 0 0 0 - - - 0;
#X obj 561 146 t b f;
#X obj 561 120 r slide_dois;
#X connect 0 0 10 0;
#X connect 0 0 8 0;
#X connect 4 0 11 0;
#X connect 4 0 9 0;
#X connect 8 0 3 0;
#X connect 9 0 6 0;
#X connect 10 0 2 0;
#X connect 11 0 5 0;
#X connect 12 0 15 0;
#X connect 13 0 11 0;
#X connect 14 0 13 0;
#X connect 15 0 11 0;
#X connect 15 1 16 0;
#X connect 16 0 14 0;
#X connect 17 0 9 0;
#X connect 18 0 17 0;
#X connect 19 0 9 0;
#X connect 19 1 18 0;
#X connect 20 0 19 0;
#X restore 672 112 pd PRESET;
#X obj 529 124 sampler_1;
#X obj 352 39 tgl 50 0 sensores_toggle_out sensores_toggle_in SENSORES 0 -8 0 10 #f8fc00 #000000 #000000 0 1;
#X obj 529 39 tgl 50 0 empty sampler_toggle_in SAMPLER 0 -8 0 10 #f8fc00 #000000 #000000 0 1;
#N canvas 595 46 845 639 oscquinho 0;
#X obj 97 49 unpackOSC;
#X floatatom 98 142 5 0 0 0 - - - 0;
#X obj 263 211 vsl 30 100 0 1 0 0 empty empty empty 0 -9 0 12 #fcfcfc #000000 #000000 0 1;
#X msg 43 224 menusave;
#X obj 97 83 routeOSC /1/fader1;
#X obj 44 178 routeOSC /1/push1;
#X floatatom 248 142 5 0 0 0 - - - 0;
#X obj 373 211 vsl 30 100 0 1 0 0 empty empty empty 0 -9 0 12 #fcfcfc #000000 #000000 0 1;
#X obj 263 320 s slide_um;
#X obj 373 320 s slide_dois;
#X obj 247 83 routeOSC /1/fader2;
#X obj 97 21 udpreceive 7777;
#X floatatom 408 142 5 0 0 0 - - - 0;
#X obj 493 211 vsl 30 100 0 1 0 0 empty empty empty 0 -9 0 12 #fcfcfc #000000 #000000 0 1;
#X obj 493 320 s slide_tres;
#X obj 407 83 routeOSC /1/fader3;
#X obj 43 251 s pd-vaso_4.pd;
#X connect 0 0 4 0;
#X connect 0 0 5 0;
#X connect 0 0 10 0;
#X connect 0 0 15 0;
#X connect 2 0 8 0;
#X connect 3 0 16 0;
#X connect 4 0 2 0;
#X connect 4 0 1 0;
#X connect 5 0 3 0;
#X connect 7 0 9 0;
#X connect 10 0 6 0;
#X connect 10 0 7 0;
#X connect 11 0 0 0;
#X connect 13 0 14 0;
#X connect 15 0 12 0;
#X connect 15 0 13 0;
#X restore 672 200 pd oscquinho;
#N canvas 103 340 1129 460 SENSORES 0;
#X obj 97 49 unpackOSC;
#X floatatom 97 168 5 0 0 0 - - - 0;
#X floatatom 197 168 5 0 0 0 - - - 0;
#X floatatom 377 274 5 0 0 0 - - - 0;
#X obj 97 83 routeOSC /ldr;
#X obj 197 83 routeOSC /tof;
#X obj 97 21 udpreceive 9000;
#X obj 98 234 r dB;
#X obj 378 250 expr if ($f1 > 55 \, $f2 \, 0);
#X floatatom 525 324 5 0 0 0 - - - 0;
#X floatatom 391 325 5 0 0 0 - - - 0;
#X obj 464 324 moses 0;
#X obj 378 352 expr if ($f1 == 0 \, $f2 * 0 \, $f2);
#X floatatom 378 381 5 0 0 0 - - - 0;
#X obj 377 298 scale 300 5000 5000 200, f 28;
#X obj 432 324 / 3;
#X obj 782 330 s ring_return_in;
#X floatatom 713 334 5 0 0 0 - - - 0;
#X obj 778 203 moses 1500;
#X floatatom 734 268 5 0 0 0 - - - 0;
#X obj 712 301 scale 60 1200 0 1, f 28;
#X obj 379 144 gate 1;
#X floatatom 379 194 5 0 0 0 - - - 0;
#X floatatom 706 194 5 0 0 0 - - - 0;
#X obj 706 240 expr if ($f1 > 1200 \, $f2 * 0 \, $f2);
#X obj 690 373 sel 0;
#X msg 747 373 1;
#X obj 197 193 t b f;
#X obj 378 404 s ring_pitch_receive;
#X obj 379 19 r sensores_toggle_out;
#X obj 1026 143 sel 0;
#X msg 1028 176 0;
#X obj 98 259 t b f;
#X obj 385 118 pack f f f;
#X obj 379 169 unpack f f f;
#X floatatom 378 226 5 0 0 0 - - - 0;
#X connect 0 0 4 0;
#X connect 0 0 5 0;
#X connect 1 0 33 0;
#X connect 2 0 27 0;
#X connect 3 0 14 0;
#X connect 3 0 12 0;
#X connect 4 0 1 0;
#X connect 5 0 2 0;
#X connect 6 0 0 0;
#X connect 7 0 32 0;
#X connect 8 0 3 0;
#X connect 9 0 12 1;
#X connect 10 0 15 0;
#X connect 11 1 9 0;
#X connect 12 0 13 0;
#X connect 13 0 28 0;
#X connect 14 0 10 0;
#X connect 15 0 11 0;
#X connect 18 0 24 1;
#X connect 19 0 20 0;
#X connect 20 0 16 0;
#X connect 20 0 17 0;
#X connect 21 0 34 0;
#X connect 22 0 8 1;
#X connect 23 0 18 0;
#X connect 23 0 24 0;
#X connect 24 0 19 0;
#X connect 24 0 25 0;
#X connect 25 0 26 0;
#X connect 26 0 16 0;
#X connect 27 0 33 0;
#X connect 27 1 33 1;
#X connect 29 0 21 0;
#X connect 29 0 30 0;
#X connect 30 0 31 0;
#X connect 32 0 33 0;
#X connect 32 1 33 2;
#X connect 33 0 21 1;
#X connect 34 0 22 0;
#X connect 34 1 23 0;
#X connect 34 2 35 0;
#X connect 35 0 8 0;
#X restore 672 134 pd SENSORES;
#X floatatom 98 51 5 0 0 0 - dB - 0;
#X text 144 52 <- dB INPUT;
#N canvas 76 346 506 351 input 0;
#X obj 17 21 adc~;
#X obj 17 70 env~;
#X obj 53 70 - 95;
#X obj 17 46 *~;
#X obj 90 46 r input1;
#X obj 90 70 s vu_1;
#X obj 47 45 pow 2;
#X floatatom 47 167 5 0 0 0 - effect_send_2 - 0;
#X obj 17 167 *~;
#X obj 17 193 throw~ fx2;
#X obj 332 42 fiddle~, f 18;
#X floatatom 332 68 5 0 0 0 - - - 0;
#X obj 375 68 s dB;
#X obj 172 96 clip~ -0.95 0.95;
#X obj 173 123 throw~ masterL1;
#X obj 173 146 throw~ masterR2;
#X obj 110 193 throw~ sampler;
#X connect 0 0 3 0;
#X connect 0 0 10 0;
#X connect 1 0 2 0;
#X connect 2 0 5 0;
#X connect 3 0 1 0;
#X connect 3 0 8 0;
#X connect 3 0 16 0;
#X connect 3 0 13 0;
#X connect 4 0 6 0;
#X connect 6 0 3 1;
#X connect 7 0 8 1;
#X connect 8 0 9 0;
#X connect 10 3 11 0;
#X connect 11 0 12 0;
#X connect 13 0 14 0;
#X connect 13 0 15 0;
#X restore 672 90 pd input;
#N canvas 51 267 533 557 counter 0;
#X obj 31 158 cronometro;
#X obj 26 22 loadbang;
#X obj 26 71 s sensores_toggle_in;
#X floatatom 99 209 5 0 0 0 - - - 0;
#X floatatom 99 261 5 0 0 0 - - - 0;
#X obj 287 131 / 4;
#X obj 316 131 i;
#X floatatom 287 154 5 0 0 0 - - - 0;
#X obj 287 177 * 3;
#X obj 332 177 * 1;
#X floatatom 287 200 5 0 0 0 - - - 0;
#X floatatom 332 199 5 0 0 0 - - - 0;
#X obj 287 222 +;
#X floatatom 287 244 5 0 0 0 - - - 0;
#X obj 99 286 sel 0;
#X obj 179 286 sel;
#X msg 99 318 1;
#X obj 99 362 tgl 19 0 empty empty empty 0 -10 0 12 #fcfcfc #000000 #000000 0 1;
#X msg 179 318 1;
#X msg 136 318 0;
#X obj 179 362 tgl 19 0 empty empty empty 0 -10 0 12 #fcfcfc #000000 #000000 0 1;
#X obj 287 48 bng 19 250 50 0 empty empty empty 0 -10 0 12 #fcfcfc #000000 #000000;
#X msg 223 318 0;
#X obj 31 131 delay 10;
#X obj 99 237 mod;
#X msg 287 107 20;
#X obj 149 38 delay 7500;
#X obj 287 78 t b b;
#X obj 100 405 s sensores_toggle_in;
#X obj 262 405 s sampler_toggle_in;
#X obj 423 78 * 100;
#X floatatom 423 137 5 0 0 0 - - - 0;
#X obj 424 43 r slide_tres;
#X obj 461 101 i;
#X msg 407 193 set \$1;
#X obj 407 164 t b f;
#X obj 362 303 loadbang;
#X msg 361 341 0;
#X obj 22 261 s counter;
#X connect 0 0 3 0;
#X connect 1 0 26 0;
#X connect 3 0 24 0;
#X connect 4 0 14 0;
#X connect 4 0 15 0;
#X connect 4 0 38 0;
#X connect 5 0 6 0;
#X connect 6 0 7 0;
#X connect 7 0 8 0;
#X connect 7 0 9 0;
#X connect 8 0 10 0;
#X connect 9 0 11 0;
#X connect 10 0 12 0;
#X connect 10 0 15 1;
#X connect 11 0 12 1;
#X connect 12 0 13 0;
#X connect 13 0 24 1;
#X connect 14 0 16 0;
#X connect 14 0 19 0;
#X connect 15 0 18 0;
#X connect 15 0 22 0;
#X connect 16 0 17 0;
#X connect 17 0 28 0;
#X connect 18 0 20 0;
#X connect 19 0 20 0;
#X connect 20 0 29 0;
#X connect 21 0 23 0;
#X connect 21 0 27 0;
#X connect 22 0 17 0;
#X connect 23 0 0 0;
#X connect 24 0 4 0;
#X connect 25 0 5 0;
#X connect 26 0 21 0;
#X connect 27 0 25 0;
#X connect 27 1 25 0;
#X connect 30 0 33 0;
#X connect 31 0 35 0;
#X connect 32 0 30 0;
#X connect 33 0 31 0;
#X connect 34 0 25 0;
#X connect 35 0 21 0;
#X connect 35 1 34 0;
#X connect 36 0 37 0;
#X connect 37 0 29 0;
#X restore 672 222 pd counter;
#X floatatom 98 81 5 0 0 0 - counter - 12;
#X text 144 82 <- COUNTER;
#X connect 10 0 11 0;
#X connect 15 0 13 0;
